# xmcd CD database file
# Copyright (C) 1997 Ti Kan
# 
# Track frame offsets:
#     150
#     12530
#     24450
# 
# Disc length: 542 seconds
# 
# Revision: 1
# Processed by: cddbd v1.4b41PL1 Copyright (c) Steve Scherf et al.
# Submitted via: DiscPlay 4.0.4
# 
DISCID=1b021c03
DTITLE=The Temptations - My Girl
DYEAR=1900
DGENRE=
TTITLE0=My Girl
TTITLE1=Hot Fun In The SummerTime
TTITLE2=Theme From 'My Girl'
EXTD=
EXTT0=
EXTT1=
EXTT2=
PLAYORDER=
